<svg xmlns="http://www.w3.org/2000/svg" width="32" height="32" viewBox="0 0 32 32">
  <g id="Group_62816" data-name="Group 62816" transform="translate(-28 -663)">
    <path id="Oval" d="M16,0A16,16,0,1,1,0,16,16,16,0,0,1,16,0Z" transform="translate(28 663)" fill="#ff637d"/>
    <g id="vuesax_linear_call" data-name="vuesax/linear/call" transform="translate(-72.41 482.59)">
      <g id="call" transform="translate(108 188)">
        <g id="call-2" data-name="call" transform="translate(1.402 1.402)">
          <path id="Vector" d="M14,11.445a1.784,1.784,0,0,1-.175.764,2.892,2.892,0,0,1-.477.715,3.16,3.16,0,0,1-1.149.827,3.519,3.519,0,0,1-1.367.266,5.841,5.841,0,0,1-2.285-.512,12.31,12.31,0,0,1-2.411-1.388,20.149,20.149,0,0,1-2.3-1.962A19.914,19.914,0,0,1,1.878,7.863,12.5,12.5,0,0,1,.5,5.474,5.9,5.9,0,0,1,0,3.182,3.626,3.626,0,0,1,.252,1.829,3.226,3.226,0,0,1,1.058.659,2.053,2.053,0,0,1,2.516,0a1.317,1.317,0,0,1,.568.126,1.142,1.142,0,0,1,.47.392L5.179,2.81a2.4,2.4,0,0,1,.28.491,1.108,1.108,0,0,1,.1.428.951.951,0,0,1-.147.5,2.384,2.384,0,0,1-.392.5l-.533.554a.375.375,0,0,0-.112.28.636.636,0,0,0,.021.161c.021.056.042.1.056.14a5.816,5.816,0,0,0,.652.9c.315.364.652.736,1.016,1.107s.743.715,1.114,1.03a5.379,5.379,0,0,0,.9.645c.035.014.077.035.126.056a.484.484,0,0,0,.175.028A.386.386,0,0,0,8.726,9.5l.533-.526a2.15,2.15,0,0,1,.5-.392.933.933,0,0,1,.5-.147,1.118,1.118,0,0,1,.428.091,2.71,2.71,0,0,1,.491.273L13.5,10.45a1.063,1.063,0,0,1,.385.449A1.438,1.438,0,0,1,14,11.445Z" transform="translate(0 0)" fill="none" stroke="#fff" stroke-width="1"/>
        </g>
        <path id="Vector-2" data-name="Vector" d="M0,0H16.82V16.82H0Z" fill="none" opacity="0"/>
      </g>
    </g>
  </g>
</svg>
