<svg id="Group_184666" data-name="Group 184666" xmlns="http://www.w3.org/2000/svg" width="434.524" height="292.975" viewBox="0 0 434.524 292.975">
  <g id="Group_3533" data-name="Group 3533" opacity="0.224">
    <path id="Path_5779" data-name="Path 5779" d="M330.374,424.661c-24.687-1.133-48.921-11.611-60.769-29.623-10.956-16.658-12.993-42.46-8.091-61,4.116-15.564,15.873-29.031,29.283-40.434,27.091-23.04,62-39.752,84.9-65.739,12.724-14.442,21.194-31.181,33.43-45.912,23.793-28.644,63.191-48.969,105.084-50.213S598.989,150.052,616.4,181.7c14.974,27.227,11.071,60.225,29.506,85.947,8.474,11.823,21.107,21.215,30.415,32.6,16.561,20.255,21.566,46.733,13.273,70.226s-29.722,43.541-56.835,53.176" transform="translate(-258.999 -131.686)" fill="#ff637d" opacity="0.31"/>
    <path id="Path_5780" data-name="Path 5780" d="M595.962,416.907c17.218-.746,34.12-7.652,42.382-19.523,7.642-10.979,9.062-27.984,5.644-40.2-2.87-10.258-11.07-19.134-20.423-26.649-18.9-15.184-43.241-26.2-59.21-43.325-8.876-9.518-19.494-31.5-28.029-41.213-16.593-18.878-36.3-31.275-65.36-34.367-37.473-3.987-62.349,24.3-74.488,45.154-10.444,17.945-7.721,39.692-20.579,56.645-5.91,7.792-14.722,13.982-21.212,21.484-11.552,13.35-15.042,30.8-9.258,46.282s20.73,28.7,39.64,35.046" transform="translate(-253.216 -126.188)" fill="#ff637d" opacity="0.31"/>
  </g>
  <path id="Path_5781" data-name="Path 5781" d="M336.149,389.907l-.542,4.206a4.71,4.71,0,0,0,3.366-1.327,1.277,1.277,0,0,0,.242-1.311C338.871,390.5,337.485,390.071,336.149,389.907Z" transform="translate(-253.705 -113.843)" fill="none"/>
  <g id="Group_3535" data-name="Group 3535" transform="translate(71.013 199.244)">
    <g id="Group_3534" data-name="Group 3534" transform="translate(0 55.308)">
      <path id="Union_11" data-name="Union 11" d="M5.224,31.684,3.746,23,.012,1.009A.865.865,0,0,1,.862,0H25.12a.777.777,0,0,1,.768.875L24.876,8.7c.2.023.4.065.6.1,3.387.512,7.17,1.906,8.453,5.553a6.441,6.441,0,0,1-1.14,6.392c-2,2.481-5.753,3.926-9.985,4.005l-.893,6.931Zm18.12-11.069c3.033-.165,5.247-1.236,6.246-2.462a2.387,2.387,0,0,0,.448-2.435c-.641-1.816-3.207-2.6-5.688-2.906Z" transform="translate(0 0)" fill="#ff637d" stroke="rgba(0,0,0,0)" stroke-width="1"/>
    </g>
    <path id="Path_5784" data-name="Path 5784" d="M339.264,370.112c-2.412-1.282-4.714-5.9-5.663-8.039a8.046,8.046,0,0,1-.173-6.783c.889-1.764,2.594-2.978,3.655-4.644a7.538,7.538,0,0,0,.926-5.87c-.722-2.78-3-4.995-3.526-7.819-.613-3.312,1.313-6.5,2.156-9.758a15.569,15.569,0,0,0-.433-9.146c2.353,1.4,3.76,3.922,5.058,6.33,1.186,2.2,2.407,4.551,2.234,7.042a16.364,16.364,0,0,1-1.312,4.507c-1,2.663-1.676,5.586-.966,8.339,1.073,4.163,5.174,7.417,5.013,11.713-.1,2.545-1.745,4.8-3.733,6.4-1.3,1.037-2.793,1.9-3.7,3.291s-.941,3.559.465,4.442" transform="translate(-324.915 -318.052)" fill="#fff"/>
  </g>
  <g id="Group_3547" data-name="Group 3547" transform="translate(222.745 108.497)">
    <path id="Path_5785" data-name="Path 5785" d="M478.236,248.971a56.143,56.143,0,0,0-4.129,13.26c-.719,4.451-.967,8.987-2.073,13.356a57.528,57.528,0,0,1-4.364,11.1,2.4,2.4,0,0,0-.323,1.031,2.322,2.322,0,0,0,1.186,1.667,32.139,32.139,0,0,0,30.711,3.656" transform="translate(-467.347 -232.079)" fill="#171717"/>
    <ellipse id="Ellipse_479" data-name="Ellipse 479" cx="8.573" cy="10.66" rx="8.573" ry="10.66" transform="translate(0 25.589)" fill="#fff"/>
    <ellipse id="Ellipse_480" data-name="Ellipse 480" cx="8.573" cy="10.66" rx="8.573" ry="10.66" transform="translate(4.033 27.098)" fill="#ff637d"/>
    <path id="Path_5786" data-name="Path 5786" d="M498.813,292.653l-17.89-37.531c-1.979,6.594-3.959,13.188-5.829,19.816a37.212,37.212,0,0,0-1.44,6.709,19.15,19.15,0,0,0,.406,5.973,11.165,11.165,0,0,0,2.529,5.205,8.844,8.844,0,0,0,.786.7A32.027,32.027,0,0,0,498.813,292.653Z" transform="translate(-466.916 -231.654)" fill="#171717"/>
    <path id="Path_5787" data-name="Path 5787" d="M493.848,289.634c.808,4.555,1.477,9.727-1.35,13.389-.62.8-1.427,1.587-1.471,2.6-.059,1.329,1.21,2.305,2.4,2.9a18.959,18.959,0,0,0,14.972.775,2.422,2.422,0,0,0,1.078-.658c.605-.748.217-1.848-.155-2.737a32.992,32.992,0,0,1,.263-25.783" transform="translate(-465.711 -229.926)" fill="#ffba98"/>
    <path id="Path_5788" data-name="Path 5788" d="M493.286,288a27.155,27.155,0,0,1,.96,9.558.4.4,0,0,0,.058.321c.1.111.284.067.427.016a13.312,13.312,0,0,0,3.035-1.394,13.557,13.557,0,0,0,4.183-4.71,13.969,13.969,0,0,0,1.448-7.247" transform="translate(-465.555 -229.621)" fill="#d88d6c"/>
    <path id="Path_5789" data-name="Path 5789" d="M483.743,249.55c-3.247,3.626-4,8.79-4.432,13.64a56.1,56.1,0,0,0,0,12.838,23.408,23.408,0,0,0,4.844,11.743,18.026,18.026,0,0,0,4.043,3.584,10.335,10.335,0,0,0,3.394,1.512c2.316.5,4.708-.167,6.961-.9,5.133-1.664,10.417-3.913,13.585-8.28,4.128-5.692,6.858-20.666,7.931-27.615" transform="translate(-466.546 -232.039)" fill="#ffba98"/>
    <path id="Path_5790" data-name="Path 5790" d="M477.381,253.708a34.827,34.827,0,0,0,17.017,7.974,59.85,59.85,0,0,0,11,.536,19.035,19.035,0,0,0,4.1-.4,7.517,7.517,0,0,0,4.635-3.122,5.069,5.069,0,0,0,.074-5.413" transform="translate(-466.654 -231.781)" fill="#ffba98"/>
    <path id="Path_5791" data-name="Path 5791" d="M518.921,236.124c-9.15-4.424-22.4-3.508-29.057.3s-9.417,7.222-12.892,15.162c-.207.475-1.409,3.4-1.227,3.881a1.392,1.392,0,0,0,.893.931c8.223,3.139,15.455,3.706,24.246,4.14A30.66,30.66,0,0,0,509.63,260c4.032,13.506,1.931,23.187-4.783,35.58,4.37,1.843,21.365,2.9,29.452-3.361a19.348,19.348,0,0,0,5.259-5.842c3.215-5.869,1.835-13.106.087-19.567a65.071,65.071,0,0,0-5.138-14c-3.629-6.736-8.56-13.656-15.585-16.688" transform="translate(-466.768 -233.171)" fill="#171717"/>
    <path id="Path_5792" data-name="Path 5792" d="M486.15,277.385c.667,2.062,1.435,3.964,3.26,5.133a6.521,6.521,0,0,0,6.175.112c1.946-.912,3.8-3.2,5.159-4.859a56.374,56.374,0,0,1-14.594-.386" transform="translate(-466.048 -230.115)" fill="#fff"/>
    <path id="Path_5793" data-name="Path 5793" d="M522.925,289.049a4.158,4.158,0,0,1-1.323-1.635c-.517-1.277-.067-2.717.329-4.037a21.463,21.463,0,0,0,1.107-6.882,10.131,10.131,0,0,0-2.371-6.438c-2.262-2.511-5.817-3.308-9.131-3.972l-2.088-.418c1.239,9.682-1.123,17.834-6.449,27.665,4.371,1.843,21.365,2.9,29.452-3.361.3-.229.577-.478.864-.719a11.889,11.889,0,0,1-1.527.771A9.14,9.14,0,0,1,522.925,289.049Z" transform="translate(-464.883 -230.925)" fill="#171717"/>
    <g id="Group_3536" data-name="Group 3536" transform="translate(23.746 33.753)">
      <path id="Path_5794" data-name="Path 5794" d="M494.045,266.077a4.059,4.059,0,0,0-4.048-.035l-.439-.647a4.8,4.8,0,0,1,4.853-.008Z" transform="translate(-489.558 -264.742)" fill="#161119"/>
    </g>
    <g id="Group_3537" data-name="Group 3537" transform="translate(42.556 34.054)">
      <path id="Path_5795" data-name="Path 5795" d="M509.2,265.841l-2.044-.036v-.781h1.936Z" transform="translate(-507.152 -265.024)" fill="#161119"/>
    </g>
    <path id="Path_5796" data-name="Path 5796" d="M491.451,267.31l-2.475,7.583,3.9.316" transform="translate(-465.853 -230.812)" fill="#d88d6c"/>
    <g id="Group_3538" data-name="Group 3538" transform="translate(32.624 28.461)">
      <path id="Path_5797" data-name="Path 5797" d="M498.567,261.8a4.654,4.654,0,0,1,.492-.258c.1-.047.2-.092.3-.136l-.111.048c.254-.108.514-.2.777-.288a9.666,9.666,0,0,1,.991-.259q.324-.066.651-.11l-.125.017a9.285,9.285,0,0,1,1.888-.06c.195.013.389.033.583.059l-.125-.016a9.457,9.457,0,0,1,1.872.453c.187.066.371.138.554.215l-.112-.047a11.1,11.1,0,0,1,1.937,1.068.474.474,0,0,0,.361.047.468.468,0,0,0,.327-.576.521.521,0,0,0-.216-.28,10.969,10.969,0,0,0-3.129-1.5,9.741,9.741,0,0,0-2.813-.383,10,10,0,0,0-2.314.3,9.828,9.828,0,0,0-1.624.566,5.4,5.4,0,0,0-.633.322l-.009,0a.494.494,0,0,0-.215.28.479.479,0,0,0,.047.361.473.473,0,0,0,.28.216.484.484,0,0,0,.361-.048Z" transform="translate(-497.862 -259.792)" fill="#3e3244"/>
    </g>
    <g id="Group_3539" data-name="Group 3539" transform="translate(12.179 27.621)">
      <path id="Path_5798" data-name="Path 5798" d="M487.276,261.909a4.665,4.665,0,0,0-.437-.343c-.09-.065-.182-.128-.275-.189l.1.067q-.346-.228-.712-.423a9.511,9.511,0,0,0-.928-.435c-.2-.082-.41-.158-.619-.227l.12.038a9.393,9.393,0,0,0-1.845-.4q-.292-.032-.585-.047l.126.006a9.419,9.419,0,0,0-1.923.106c-.2.03-.389.067-.583.11l.119-.027c-.722.16.238.649-1.085.3a2.853,2.853,0,0,1,2.018-1.391,9.7,9.7,0,0,1,2.835.136,9.883,9.883,0,0,1,3.713,1.571,5.4,5.4,0,0,1,.564.432l.008.006a.491.491,0,0,1,.16.314.478.478,0,0,1-.112.346.471.471,0,0,1-.314.161.48.48,0,0,1-.346-.112Z" transform="translate(-478.739 -259.007)" fill="#3e3244"/>
    </g>
    <path id="Path_5799" data-name="Path 5799" d="M498.581,266.526a3.607,3.607,0,0,1,5.582-.462" transform="translate(-465.189 -230.976)" fill="none" stroke="#3e3244" stroke-width="5"/>
    <path id="Path_5800" data-name="Path 5800" d="M480.416,265.871a3.608,3.608,0,0,1,5.583-.462" transform="translate(-466.444 -231.021)" fill="none" stroke="#3e3244" stroke-width="5"/>
    <circle id="Ellipse_481" data-name="Ellipse 481" cx="3.35" cy="3.35" r="3.35" transform="translate(36.183 39.255)" fill="#f27b53" opacity="0.45"/>
    <circle id="Ellipse_482" data-name="Ellipse 482" cx="2.823" cy="2.823" r="2.823" transform="translate(12.606 38.479)" fill="#f27b53" opacity="0.45"/>
    <g id="Group_3540" data-name="Group 3540" transform="translate(9.432 27.621)">
      <path id="Path_5801" data-name="Path 5801" d="M483.572,273.813a7.4,7.4,0,1,1,7.4-7.4A7.411,7.411,0,0,1,483.572,273.813Zm0-13.953a6.55,6.55,0,1,0,6.549,6.549A6.558,6.558,0,0,0,483.572,259.86Z" transform="translate(-476.169 -259.006)" fill="#161119"/>
    </g>
    <g id="Group_3541" data-name="Group 3541" transform="translate(28.056 27.621)">
      <path id="Path_5802" data-name="Path 5802" d="M500.992,273.813a7.4,7.4,0,1,1,7.4-7.4A7.411,7.411,0,0,1,500.992,273.813Zm0-13.953a6.55,6.55,0,1,0,6.55,6.549A6.558,6.558,0,0,0,500.992,259.86Z" transform="translate(-493.59 -259.006)" fill="#161119"/>
    </g>
    <g id="Group_3544" data-name="Group 3544" transform="translate(25.061 45.594)">
      <g id="Group_3542" data-name="Group 3542" transform="translate(0 8.775)">
        <ellipse id="Ellipse_483" data-name="Ellipse 483" cx="2.577" cy="2.015" rx="2.577" ry="2.015" transform="translate(0 0.495) rotate(-5.513)" fill="#161119"/>
      </g>
      <g id="Group_3543" data-name="Group 3543" transform="translate(3.937)">
        <path id="Path_5803" data-name="Path 5803" d="M497.955,287.245a25.561,25.561,0,0,1-3.484.1l.043-1.111c13.422.536,23.744-10.306,23.845-10.416l.811.76C519.073,276.683,510.141,286.069,497.955,287.245Z" transform="translate(-494.471 -275.818)" fill="#161119"/>
      </g>
    </g>
    <g id="Group_3546" data-name="Group 3546" transform="translate(6.824 0.547)">
      <g id="Group_3545" data-name="Group 3545">
        <path id="Path_5804" data-name="Path 5804" d="M476.158,259.456c1.073-7.522,5.015-15.807,11.472-20.06,5.784-3.809,13.521-4.051,19.895-1.607,5.491,2.106,9.127,6.8,10.919,12.272,1.527,4.66,1.732,9.449,2.087,14.291.117,1.6,2.62,1.61,2.5,0-.338-4.609-.526-9.2-1.788-13.68-1.643-5.832-5.007-11.188-10.457-14.119a25.353,25.353,0,0,0-21.782-.785c-5.448,2.5-9.431,7.37-11.959,12.7a36.557,36.557,0,0,0-3.3,10.325c-.225,1.576,2.186,2.257,2.413.666Z" transform="translate(-473.73 -233.682)" fill="#fff"/>
      </g>
      <ellipse id="Ellipse_484" data-name="Ellipse 484" cx="8.573" cy="10.66" rx="8.573" ry="10.66" transform="translate(38.123 28.049)"/>
      <ellipse id="Ellipse_485" data-name="Ellipse 485" cx="8.145" cy="10.127" rx="8.145" ry="10.127" transform="translate(39.901 28.582)" fill="#fff"/>
    </g>
  </g>
  <g id="Group_3567" data-name="Group 3567" transform="translate(108.501 31.486)">
    <g id="Group_3550" data-name="Group 3550" transform="translate(181.961 32.645)">
      <rect id="Rectangle_2742" data-name="Rectangle 2742" width="52.197" height="34.972" rx="4.762" transform="translate(1.226 1.175)" fill="#26476d" opacity="0.07"/>
      <g id="Group_3549" data-name="Group 3549">
        <rect id="Rectangle_2743" data-name="Rectangle 2743" width="52.197" height="34.972" rx="4.762" fill="#fff"/>
        <g id="Group_3548" data-name="Group 3548" transform="translate(18.852 5.641)">
          <path id="Path_5805" data-name="Path 5805" d="M559.108,197.708a6.168,6.168,0,0,1,2.513,2.11,5.219,5.219,0,0,1,.915,2.995,5.364,5.364,0,0,1-.419,2.187,6.019,6.019,0,0,1-1.024,1.614,16.707,16.707,0,0,1-1.6,1.5,12.8,12.8,0,0,0-1.987,2.048,3.712,3.712,0,0,0-.65,2.234v.434a.849.849,0,0,1-.839.838h-1.147a.847.847,0,0,1-.838-.838v-.651a5.176,5.176,0,0,1,.435-2.187,5.978,5.978,0,0,1,1.039-1.6q.6-.651,1.628-1.582a12.883,12.883,0,0,0,1.939-1.97,3.3,3.3,0,0,0,.637-2.032,2.732,2.732,0,0,0-1.242-2.358,5.068,5.068,0,0,0-2.978-.869,4.534,4.534,0,0,0-2.795.838,4.418,4.418,0,0,0-1.55,2.575.824.824,0,0,1-.3.5.8.8,0,0,1-.512.186h-1.334a.71.71,0,0,1-.5-.2.542.542,0,0,1-.185-.481,6.384,6.384,0,0,1,3.336-5.151,7.692,7.692,0,0,1,3.833-.9A8.318,8.318,0,0,1,559.108,197.708Zm-2.187,21.024a.809.809,0,0,1-.59.248h-1.768a.849.849,0,0,1-.839-.837v-1.769a.849.849,0,0,1,.839-.838h1.768a.845.845,0,0,1,.837.838v1.769A.805.805,0,0,1,556.921,218.732Z" transform="translate(-548.321 -196.948)" fill="#ff637d"/>
        </g>
      </g>
    </g>
    <g id="Group_3557" data-name="Group 3557" transform="translate(75.896)">
      <path id="Path_5806" data-name="Path 5806" d="M479.547,162.2h-41.6a5.3,5.3,0,0,0-5.3,5.3v24.378a5.3,5.3,0,0,0,5.3,5.3h29.508l11.18,7.935v-7.935h.915a5.3,5.3,0,0,0,5.3-5.3V167.5A5.3,5.3,0,0,0,479.547,162.2Z" transform="translate(-431.397 -161.064)" fill="#26476d" opacity="0.07"/>
      <g id="Group_3556" data-name="Group 3556">
        <path id="Path_5807" data-name="Path 5807" d="M478.378,161.137h-41.6a5.3,5.3,0,0,0-5.3,5.3v24.378a5.3,5.3,0,0,0,5.3,5.3h29.508l11.18,7.935v-7.935h.915a5.3,5.3,0,0,0,5.3-5.3V166.434A5.3,5.3,0,0,0,478.378,161.137Z" transform="translate(-431.478 -161.137)" fill="#fff"/>
        <g id="Group_3555" data-name="Group 3555" transform="translate(5.068 4.009)">
          <path id="Path_5808" data-name="Path 5808" d="M436.6,164.887" transform="translate(-436.192 -164.887)" fill="#ff637d"/>
          <g id="Group_3551" data-name="Group 3551" transform="translate(0 5.02)">
            <path id="Path_5809" data-name="Path 5809" d="M477.878,169.583H436.621a.417.417,0,0,0,0,.834h41.257a.417.417,0,0,0,0-.834Z" transform="translate(-436.218 -169.583)" fill="#ff637d"/>
          </g>
          <g id="Group_3552" data-name="Group 3552" transform="translate(0 10.458)">
            <path id="Path_5810" data-name="Path 5810" d="M477.878,174.669H436.621a.417.417,0,0,0,0,.834h41.257a.417.417,0,0,0,0-.834Z" transform="translate(-436.218 -174.669)" fill="#ff637d"/>
          </g>
          <g id="Group_3553" data-name="Group 3553" transform="translate(0 15.894)">
            <path id="Path_5811" data-name="Path 5811" d="M465.553,179.754H436.621a.418.418,0,0,0,0,.835h28.932a.418.418,0,0,0,0-.835Z" transform="translate(-436.218 -179.754)" fill="#ff637d"/>
          </g>
          <g id="Group_3554" data-name="Group 3554" transform="translate(0 21.332)">
            <path id="Path_5812" data-name="Path 5812" d="M465.553,184.84H436.621a.418.418,0,0,0,0,.835h28.932a.418.418,0,0,0,0-.835Z" transform="translate(-436.218 -184.84)" fill="#ff637d"/>
          </g>
        </g>
      </g>
    </g>
    <g id="Group_3564" data-name="Group 3564" transform="translate(70.484 43.85)">
      <path id="Path_5813" data-name="Path 5813" d="M457.643,202.843H430.616a3.441,3.441,0,0,0-3.44,3.441v15.837a3.441,3.441,0,0,0,3.44,3.441h19.17l7.262,5.155v-5.155h.594a3.441,3.441,0,0,0,3.441-3.441V206.284A3.441,3.441,0,0,0,457.643,202.843Z" transform="translate(-426.363 -202.105)" fill="#26476d" opacity="0.07"/>
      <g id="Group_3563" data-name="Group 3563">
        <path id="Path_5814" data-name="Path 5814" d="M456.884,202.153H429.857a3.442,3.442,0,0,0-3.441,3.441v15.837a3.441,3.441,0,0,0,3.441,3.441h19.17l7.262,5.155v-5.155h.594a3.441,3.441,0,0,0,3.44-3.441V205.594A3.442,3.442,0,0,0,456.884,202.153Z" transform="translate(-426.416 -202.153)" fill="#fff"/>
        <g id="Group_3562" data-name="Group 3562" transform="translate(3.292 2.605)">
          <path id="Path_5815" data-name="Path 5815" d="M429.74,204.59" transform="translate(-429.478 -204.59)" fill="#ff637d"/>
          <g id="Group_3558" data-name="Group 3558" transform="translate(0 3.261)">
            <path id="Path_5816" data-name="Path 5816" d="M456.558,207.64h-26.8a.271.271,0,0,0,0,.542h26.8a.271.271,0,0,0,0-.542Z" transform="translate(-429.495 -207.64)" fill="#ff637d"/>
          </g>
          <g id="Group_3559" data-name="Group 3559" transform="translate(0 6.793)">
            <path id="Path_5817" data-name="Path 5817" d="M456.558,210.944h-26.8a.271.271,0,0,0,0,.542h26.8a.271.271,0,0,0,0-.542Z" transform="translate(-429.495 -210.944)" fill="#ff637d"/>
          </g>
          <g id="Group_3560" data-name="Group 3560" transform="translate(0 10.325)">
            <path id="Path_5818" data-name="Path 5818" d="M448.553,214.248h-18.8a.271.271,0,0,0,0,.542h18.8a.271.271,0,0,0,0-.542Z" transform="translate(-429.495 -214.248)" fill="#ff637d"/>
          </g>
          <g id="Group_3561" data-name="Group 3561" transform="translate(0 13.858)">
            <path id="Path_5819" data-name="Path 5819" d="M448.553,217.552h-18.8a.271.271,0,0,0,0,.542h18.8a.271.271,0,0,0,0-.542Z" transform="translate(-429.495 -217.552)" fill="#ff637d"/>
          </g>
        </g>
      </g>
    </g>
    <g id="Group_3566" data-name="Group 3566" transform="translate(0 82.299)">
      <rect id="Rectangle_2744" data-name="Rectangle 2744" width="52.197" height="34.972" rx="4.762" transform="translate(1.549 1.388)" fill="#26476d" opacity="0.07"/>
      <g id="Group_3565" data-name="Group 3565">
        <rect id="Rectangle_2745" data-name="Rectangle 2745" width="52.197" height="34.972" rx="4.762" fill="#fff"/>
        <path id="Path_5820" data-name="Path 5820" d="M380.52,246.172c.372,3.959,4.6,3.333,4.6,3.333,2.581.377,2.195,6.026,2.195,6.026s-.275,5.656-2.882,5.73c0,0-4.125-1.114-4.954,2.774s1.514,5.879,5.336,5.616c0,0,5.3-.514,6.084-14.034.436-13.7-4.423-14.4-4.423-14.4C382.709,240.511,380.149,242.215,380.52,246.172Z" transform="translate(-359.187 -237.913)" fill="#ff637d"/>
      </g>
    </g>
  </g>
  <g id="Group_3584" data-name="Group 3584" transform="translate(196.752 181.594)">
    <path id="Path_5872" data-name="Path 5872" d="M510.019,302.043c11.228.477,23.378,3.865,31.6,11.529a5.791,5.791,0,0,1,1.684,2.261,6.659,6.659,0,0,1-.433,4.07,83.037,83.037,0,0,0-.74,47.453c1.145,4.041,2.607,8.034,3,12.217s-.437,8.709-3.327,11.757a15.786,15.786,0,0,1-4.415,3.1c-8.988,4.543-19.542,4.374-29.6,3.956-6.2-.259-12.47-.583-18.443-2.279S477.63,391.2,474,386.164c-3.745-5.2-4.916-11.8-5.391-18.189-1.082-14.509.887-29.057,1.16-43.6.079-4.231-.01-8.591-1.66-12.487,7.668-5.3,16.83-8.523,25.972-10.341a10.079,10.079,0,0,0,7.982,3.971,9.583,9.583,0,0,0,7.956-3.47" transform="translate(-441.301 -301.543)" fill="#ff637d"/>
    <path id="Path_5874" data-name="Path 5874" d="M474.516,308.518c3.468,15.416.481,33.608-3.37,48.934-1.144,4.553-.9,9.543.729,11.861,1.689,2.4,4.6,3.828,7.268,5.055a47.361,47.361,0,0,1,15.215,11.13,17.831,17.831,0,0,1,4.447,6.793,8.391,8.391,0,0,1-1.161,7.772,9.035,9.035,0,0,1-7.027,2.842,34.285,34.285,0,0,1-7.7-1.321,80.955,80.955,0,0,0-12.957-1.943c-3.775-.255-7.616-.253-11.247-1.317a21.607,21.607,0,0,1-12.326-9.837,25.8,25.8,0,0,1-3.213-15.556,53.691,53.691,0,0,1,1.768-8.466c3.1-11.545,7.376-21.651,11.293-32.945a59.934,59.934,0,0,1,7.372-13.833c2.824-3.994,6.087-8.344,10.908-9.168" transform="translate(-443.034 -301.061)" fill="#f0536d"/>
    <g id="Group_3581" data-name="Group 3581" transform="translate(31.093 7.074)">
      <path id="Path_5875" data-name="Path 5875" d="M473.772,337.9c2.09-9.527,1.347-20.065-.888-29.462-.117-.49-.87-.282-.754.207a73.141,73.141,0,0,1,1.875,20.479,51.862,51.862,0,0,1-.987,8.569c-.108.49.646.7.754.207Z" transform="translate(-472.118 -308.16)" fill="#fff"/>
    </g>
    <path id="Path_5876" data-name="Path 5876" d="M501.773,387.055s-10.321-2.563-14.184-.351-9.724,5.441-9.549,9.549l0,1.685s27.668.807,29.916-1.685" transform="translate(-440.615 -295.721)" fill="#e8a17e"/>
    <path id="Path_5877" data-name="Path 5877" d="M531.1,307.433c5.065.586,10.6,6.486,14.1,11.588s5.888,10.871,8.245,16.592l13.239,32.136a52.687,52.687,0,0,1,3.41,10.2,26.369,26.369,0,0,1,.146,8.9,14.364,14.364,0,0,1-2.622,6.752c-2.134,2.714-5.5,4.1-8.73,5.323-6.81,2.588-13.8,5.015-21.066,5.517a81.732,81.732,0,0,1-8.609-.012c-7.925-.289-15.885-.582-23.683-2.027a3.614,3.614,0,0,1-1.6-.573,3.7,3.7,0,0,1-.975-1.458l-2.353-5.142a6.243,6.243,0,0,1-.8-3.017A5.775,5.775,0,0,1,502,388.7a34.681,34.681,0,0,1,9.33-6.167c7.028-3.154,15.054-3.942,21.656-7.909a10.243,10.243,0,0,0,2.22-1.69c2.433-2.584,2.288-6.744.924-10.021s-2.321-6.4-3.662-9.69c-2.982-7.309-4.471-12.079-4.635-18.325-.232-8.895.434-19.029,3.274-27.461" transform="translate(-439.111 -301.136)" fill="#f0536d"/>
    <g id="Group_3582" data-name="Group 3582" transform="translate(65.142 85.223)">
      <path id="Path_5878" data-name="Path 5878" d="M504.04,381.82a21.92,21.92,0,0,1,2.273,4.122,34.7,34.7,0,0,1,2.853,11.672c.035.5.817.5.782,0a35.885,35.885,0,0,0-2.819-11.745,22.489,22.489,0,0,0-2.414-4.444c-.3-.4-.974-.011-.675.395Z" transform="translate(-503.965 -381.258)" fill="#fff"/>
    </g>
    <g id="Group_3583" data-name="Group 3583" transform="translate(87.77 5.927)">
      <path id="Path_5879" data-name="Path 5879" d="M526.12,338.4c-.649-10.192.135-21.2,3.609-30.835.17-.474-.584-.678-.754-.207-3.494,9.694-4.289,20.794-3.637,31.042.032.5.814.5.782,0Z" transform="translate(-525.131 -307.087)" fill="#fff"/>
    </g>
  </g>
  <rect id="Rectangle_2746" data-name="Rectangle 2746" width="368.947" height="6.74" rx="3.029" transform="translate(33.22 286.235)" fill="#ff637d"/>
  <g id="Group_3586" data-name="Group 3586" transform="translate(119.057 211.689)">
    <rect id="Rectangle_2747" data-name="Rectangle 2747" width="125.849" height="3.131" rx="0.501" transform="translate(60.982 71.415)" fill="#ff637d"/>
    <path id="Path_5880" data-name="Path 5880" d="M486.331,404.239H378.963l-5.187-74.546H478.994Z" transform="translate(-370.125 -329.693)" fill="#ff637d"/>
    <g id="Group_3585" data-name="Group 3585" transform="translate(0 0)">
      <path id="Path_5881" data-name="Path 5881" d="M482.916,404.239H375.547l-5.187-74.546H475.578Z" transform="translate(-370.361 -329.693)"/>
      <circle id="Ellipse_486" data-name="Ellipse 486" cx="6.411" cy="6.411" r="6.411" transform="translate(49.866 30.861)" fill="#ff637d"/>
    </g>
  </g>
</svg>
