<svg id="copy" xmlns="http://www.w3.org/2000/svg" width="21.533" height="21.533" viewBox="0 0 21.533 21.533">
  <path id="Vector" d="M12.561,4.4V8.165c0,3.14-1.256,4.4-4.4,4.4H4.4c-3.14,0-4.4-1.256-4.4-4.4V4.4C0,1.256,1.256,0,4.4,0H8.165C11.3,0,12.561,1.256,12.561,4.4Z" transform="translate(1.794 7.178)" fill="none" stroke="#ff637d" stroke-linecap="round" stroke-linejoin="round" stroke-width="1.5"/>
  <path id="Vector-2" data-name="Vector" d="M12.561,4.4V8.165c0,3.14-1.256,4.4-4.4,4.4H7.178V9.78c0-3.14-1.256-4.4-4.4-4.4H0V4.4C0,1.256,1.256,0,4.4,0H8.165C11.3,0,12.561,1.256,12.561,4.4Z" transform="translate(7.178 1.794)" fill="none" stroke="#ff637d" stroke-linecap="round" stroke-linejoin="round" stroke-width="1.5"/>
  <path id="Vector-3" data-name="Vector" d="M0,0H21.533V21.533H0Z" fill="none" opacity="0"/>
</svg>
