<svg id="instagram" xmlns="http://www.w3.org/2000/svg" width="10.73" height="10.73" viewBox="0 0 10.73 10.73">
  <g id="Group_9502" data-name="Group 9502">
    <g id="Group_9501" data-name="Group 9501">
      <path id="Path_19538" data-name="Path 19538" d="M7.377,0H3.353A3.354,3.354,0,0,0,0,3.353V7.377A3.354,3.354,0,0,0,3.353,10.73H7.377A3.354,3.354,0,0,0,10.73,7.377V3.353A3.354,3.354,0,0,0,7.377,0ZM9.724,7.377A2.35,2.35,0,0,1,7.377,9.724H3.353A2.35,2.35,0,0,1,1.006,7.377V3.353A2.35,2.35,0,0,1,3.353,1.006H7.377A2.35,2.35,0,0,1,9.724,3.353Z" fill="#fff"/>
    </g>
  </g>
  <g id="Group_9504" data-name="Group 9504" transform="translate(2.683 2.683)">
    <g id="Group_9503" data-name="Group 9503">
      <path id="Path_19539" data-name="Path 19539" d="M130.683,128a2.683,2.683,0,1,0,2.683,2.683A2.683,2.683,0,0,0,130.683,128Zm0,4.359a1.677,1.677,0,1,1,1.677-1.677A1.679,1.679,0,0,1,130.683,132.359Z" transform="translate(-128 -128)" fill="#fff"/>
    </g>
  </g>
  <g id="Group_9506" data-name="Group 9506" transform="translate(7.892 2.124)">
    <g id="Group_9505" data-name="Group 9505">
      <circle id="Ellipse_493" data-name="Ellipse 493" cx="0.357" cy="0.357" r="0.357" fill="#fff"/>
    </g>
  </g>
</svg>
