<svg id="XMLID_801_" xmlns="http://www.w3.org/2000/svg" width="10.398" height="10.375" viewBox="0 0 10.398 10.375">
  <path id="XMLID_802_" d="M7.182,99.73H5.095a.168.168,0,0,0-.168.168V106.6a.168.168,0,0,0,.168.168H7.182a.168.168,0,0,0,.168-.168V99.9A.168.168,0,0,0,7.182,99.73Z" transform="translate(-4.762 -96.396)" fill="#fff"/>
  <path id="XMLID_803_" d="M1.377.341A1.376,1.376,0,1,0,2.754,1.717,1.378,1.378,0,0,0,1.377.341Z" transform="translate(0 -0.341)" fill="#fff"/>
  <path id="XMLID_804_" d="M110.344,94.761a2.452,2.452,0,0,0-1.834.77V95.1a.168.168,0,0,0-.168-.168h-2a.168.168,0,0,0-.168.168V101.8a.168.168,0,0,0,.168.168h2.083a.168.168,0,0,0,.168-.168V98.483c0-1.118.3-1.554,1.083-1.554.849,0,.916.7.916,1.611v3.26a.168.168,0,0,0,.168.168h2.084a.168.168,0,0,0,.168-.168V98.123C113.012,96.46,112.7,94.761,110.344,94.761Z" transform="translate(-102.615 -91.594)" fill="#fff"/>
</svg>
