<svg xmlns="http://www.w3.org/2000/svg" xmlns:xlink="http://www.w3.org/1999/xlink" width="95.234" height="103.779" viewBox="0 0 95.234 103.779"><defs><linearGradient id="a" x1="1.416" y1="-0.076" x2="0.645" y2="0.409" gradientUnits="objectBoundingBox"><stop offset="0" stop-color="#cedae5"></stop><stop offset="1" stop-color="#fff"></stop></linearGradient><clipPath id="b"><path d="M476.643,12388.314l59.382-34.262c3.5-2.021,6.343-7.447,6.343-12.119V12292.4c0-4.672-2.84-6.816-6.343-4.795l-59.382,34.26c-3.5,2.023-6.342,7.449-6.342,12.119v49.537C470.3,12388.189,473.141,12390.336,476.643,12388.314Z" transform="translate(-470.301 -12286.843)" fill="none"></path></clipPath><linearGradient id="c" x1="0.885" y1="0.057" x2="0.069" y2="0.81" gradientUnits="objectBoundingBox"><stop offset="0" stop-color="#de78f3"></stop><stop offset="0.99" stop-color="#8858fb"></stop></linearGradient><linearGradient id="d" x1="0" y1="0.5" x2="1" y2="0.5" xlink:href="#c"></linearGradient></defs><g transform="translate(-466.167 -12284.723)"><path d="M472.509,12319.741l59.383-34.261a4.059,4.059,0,0,1,4.121-.344l0-.006,2.867,1.471,0,0c1.444.718,2.37,2.556,2.37,5.22v49.537c0,4.671-2.84,10.1-6.343,12.119l-59.382,34.261a4.106,4.106,0,0,1-4.053.387h0l-2.943-1.514v0c-1.44-.72-2.363-2.557-2.363-5.216v-49.537C466.167,12327.188,469.007,12321.765,472.509,12319.741Z" transform="translate(0 0.001)" fill="#c1d0dd"></path><path d="M476.643,12388.314l59.382-34.262c3.5-2.021,6.343-7.447,6.343-12.119V12292.4c0-4.672-2.84-6.816-6.343-4.795l-59.382,34.26c-3.5,2.023-6.342,7.449-6.342,12.119v49.537C470.3,12388.189,473.141,12390.336,476.643,12388.314Z" transform="translate(-1.118 -0.573)" fill="url(#a)"></path><g transform="translate(469.183 12286.27)"><g clip-path="url(#b)"><path d="M548.189,12318.348v6.188l-16.343,12.3-10.028-6.537-19.492,24.839-14.185.933-17.84,18.537v-6.592l17.952-18.65,13.689-.9,20.814-26.521,11.068,7.215Z" transform="translate(-470.301 -12295.362)" fill="#de78f3" opacity="0.4"></path></g></g><path d="M561.814,12333.629l-14.238,10.724-6.806-4.437-4.389-2.682-20.813,26.521-13.689.9-17.952,18.65v6.591l4.389,2.683,17.84-18.537,14.185-.932,19.4-24.722,5.732,3.737,4.389,2.682,16.343-12.3v-6.187Z" transform="translate(-4.802 -13.225)" fill="url(#c)"></path><path d="M567.83,12337.3v6.188l-16.343,12.3-10.028-6.538-19.492,24.842-14.185.931-17.84,18.536v-6.592l17.952-18.649,13.689-.9,20.814-26.521,11.068,7.216Z" transform="translate(-6.429 -14.218)" fill="url(#d)"></path><path d="M508.531,12375.815l4.389,2.681,13.689-.9-4.389-2.683Z" transform="translate(-11.455 -24.389)" fill="url(#d)"></path></g></svg>