<svg xmlns="http://www.w3.org/2000/svg" xmlns:xlink="http://www.w3.org/1999/xlink" width="84.039" height="88.846" viewBox="0 0 84.039 88.846"><defs><linearGradient id="a" x1="0.317" y1="0.126" x2="0.775" y2="0.657" gradientUnits="objectBoundingBox"><stop offset="0" stop-color="#d4f7ff"></stop><stop offset="1" stop-color="#a2e3e9"></stop></linearGradient><linearGradient id="b" x1="0.452" y1="0.204" x2="0.549" y2="1.801" gradientUnits="objectBoundingBox"><stop offset="0" stop-color="#a2e3e9" stop-opacity="0"></stop><stop offset="1" stop-color="#518cd2"></stop></linearGradient><linearGradient id="c" x1="0.362" y1="0.385" x2="1.023" y2="0.625" xlink:href="#b"></linearGradient><linearGradient id="d" x1="0.656" y1="0.443" x2="1.27" y2="0.214" xlink:href="#b"></linearGradient><linearGradient id="e" x1="0.242" y1="0.138" x2="1.079" y2="0.841" xlink:href="#b"></linearGradient><linearGradient id="f" x1="0.247" y1="0.292" x2="0.576" y2="0.563" xlink:href="#b"></linearGradient><linearGradient id="g" x1="0.317" y1="0.386" x2="0.851" y2="0.678" xlink:href="#b"></linearGradient><linearGradient id="h" x1="0.307" y1="0.438" x2="-0.434" y2="0.592" xlink:href="#b"></linearGradient><linearGradient id="i" x1="0.49" y1="0.406" x2="0.059" y2="-0.123" xlink:href="#b"></linearGradient><linearGradient id="j" x1="0.461" y1="0.455" x2="-0.026" y2="-0.025" xlink:href="#b"></linearGradient><linearGradient id="k" x1="0.865" y1="0.839" x2="0.211" y2="0.206" xlink:href="#b"></linearGradient><linearGradient id="l" x1="0.006" y1="-0.116" x2="0.733" y2="0.79" gradientUnits="objectBoundingBox"><stop offset="0" stop-color="#ffe548"></stop><stop offset="0.176" stop-color="#ffde50"></stop><stop offset="0.445" stop-color="#ffca65"></stop><stop offset="0.771" stop-color="#ffaa87"></stop><stop offset="1" stop-color="#ff90a4"></stop></linearGradient><linearGradient id="m" x1="0.006" y1="-0.116" x2="0.733" y2="0.79" xlink:href="#l"></linearGradient><linearGradient id="q" x1="-3.794" y1="0.246" x2="4.794" y2="0.757" xlink:href="#b"></linearGradient></defs><g transform="translate(-13.797 0)"><path d="M102.155,99.486,90.314,81.3a3.813,3.813,0,0,0-2.538-1.676l-6.259-1.1a117.317,117.317,0,0,0-40.488,0l-6.259,1.1A3.814,3.814,0,0,0,32.233,81.3L20.392,99.486a3.814,3.814,0,0,0,.224,4.471L58.3,150.814a3.814,3.814,0,0,0,5.944,0l37.685-46.857a3.814,3.814,0,0,0,.224-4.471Z" transform="translate(-4.936 -63.391)" fill="url(#a)"></path><path d="M102.161,99.486,90.321,81.3a3.813,3.813,0,0,0-2.538-1.676l-6.259-1.1a117.316,117.316,0,0,0-40.488,0l-6.259,1.1A3.814,3.814,0,0,0,32.24,81.3L20.4,99.486a3.808,3.808,0,0,0-.609,2.316h82.98A3.806,3.806,0,0,0,102.161,99.486Z" transform="translate(-4.943 -63.391)" fill="url(#b)"></path><path d="M152.855,80.314a3.809,3.809,0,0,0-1.606-.694l-6.259-1.1a117.317,117.317,0,0,0-40.488,0l-6.259,1.1a3.807,3.807,0,0,0-1.606.694L98.063,101.8l25.425,50.221a3.841,3.841,0,0,0,2.516,0L151.429,101.8Z" transform="translate(-68.408 -63.39)" fill="url(#c)"></path><path d="M104.819,101.8l25.425,50.221a3.841,3.841,0,0,0,2.516,0L158.186,101.8S135.766,76.763,131.5,76.763,104.819,101.8,104.819,101.8Z" transform="translate(-75.165 -63.39)" fill="url(#d)"></path><path d="M34.6,218.768l25.425,50.22a3.76,3.76,0,0,1-1.714-1.209L20.623,220.922a3.806,3.806,0,0,1-.837-2.517q-.006.181.005.363H34.6Z" transform="translate(-4.943 -180.357)" fill="url(#e)"></path><path d="M290.65,218.768l-25.425,50.22a3.76,3.76,0,0,0,1.714-1.209l37.685-46.856a3.805,3.805,0,0,0,.837-2.517q.006.181-.005.363H290.65Z" transform="translate(-207.627 -180.357)" fill="url(#f)"></path><path d="M124.743,76.761c-4.263,0-26.684,25.038-26.684,25.038L96.634,80.313a3.8,3.8,0,0,1,1.606-.7l6.259-1.1A117.259,117.259,0,0,1,124.743,76.761Z" transform="translate(-68.406 -63.388)" fill="url(#g)"></path><path d="M260.962,150.813l37.685-46.857a3.814,3.814,0,0,0,.224-4.471L287.031,81.3a3.814,3.814,0,0,0-2.538-1.676l-6.259-1.1a117.308,117.308,0,0,0-20.244-1.76v75.473A3.794,3.794,0,0,0,260.962,150.813Z" transform="translate(-201.652 -63.391)" fill="url(#h)"></path><path d="M182.573,116.234,144.242,77.9h0q-.843.049-1.685.11h0q-1.66.12-3.318.288l-.143.015q-.732.075-1.463.159l-.21.024q-1.573.184-3.142.41l-.373.055q-.591.087-1.182.181l-.417.066q-.758.123-1.515.254l-1.421.249-.9.157c.348.314.686.639,1.02.968l-.044.008c.23.208.456.42.68.635.107.111.212.225.317.338l-.02,0c.065.058.127.119.191.178a32,32,0,0,1,3.359,4.359l40.313,40.18Z" transform="translate(-94.698 -64.331)" fill="url(#i)"></path><path d="M142.007,168.293,98.751,124.859a.7.7,0,0,0-1.181,0,16.026,16.026,0,0,1-4.715,4.76.7.7,0,0,0,0,1.173l44.019,43.882Z" transform="translate(-65.026 -102.843)" fill="url(#j)"></path><path d="M388.4,161.824l-5.222,6.494-8.643-8.615-7.137-7.115a.7.7,0,0,1,0-1.174,16,16,0,0,0,4.713-4.76.7.7,0,0,1,1.182,0l12.544,12.6Z" transform="translate(-291.74 -120.841)" fill="url(#k)"></path><path d="M124.167,12.508a32.059,32.059,0,0,0-9.43,9.52,1.409,1.409,0,0,1-2.363,0,32.056,32.056,0,0,0-9.429-9.52,1.409,1.409,0,0,1,0-2.347,32.054,32.054,0,0,0,9.429-9.52,1.409,1.409,0,0,1,2.363,0,32.055,32.055,0,0,0,9.43,9.52,1.409,1.409,0,0,1,0,2.347Z" transform="translate(-73.099)" fill="url(#l)"></path><path d="M103.466,130.794a16.03,16.03,0,0,0-4.715,4.76.7.7,0,0,1-1.181,0,16.026,16.026,0,0,0-4.715-4.76.7.7,0,0,1,0-1.173,16.026,16.026,0,0,0,4.715-4.76.7.7,0,0,1,1.181,0,16.029,16.029,0,0,0,4.715,4.76A.7.7,0,0,1,103.466,130.794Z" transform="translate(-65.026 -102.845)" fill="url(#m)"></path><path d="M425.328,254.875a16.03,16.03,0,0,0-4.715,4.76.7.7,0,0,1-1.181,0,16.027,16.027,0,0,0-4.715-4.76.7.7,0,0,1,0-1.173,16.029,16.029,0,0,0,4.715-4.76.7.7,0,0,1,1.181,0,16.029,16.029,0,0,0,4.715,4.76A.7.7,0,0,1,425.328,254.875Z" transform="translate(-330.817 -205.31)" fill="url(#m)"></path><path d="M24.722,287.405a16.03,16.03,0,0,0-4.715,4.76.7.7,0,0,1-1.181,0,16.026,16.026,0,0,0-4.715-4.76.7.7,0,0,1,0-1.173,16.028,16.028,0,0,0,4.715-4.76.7.7,0,0,1,1.181,0,16.029,16.029,0,0,0,4.715,4.76.7.7,0,0,1,0,1.173Z" transform="translate(0 -232.173)" fill="url(#m)"></path><path d="M378.008,152.591a16.029,16.029,0,0,0-4.715,4.76.7.7,0,0,1-1.181,0,16.026,16.026,0,0,0-4.715-4.76.7.7,0,0,1,0-1.173,16.027,16.027,0,0,0,4.715-4.76.7.7,0,0,1,1.181,0,16.029,16.029,0,0,0,4.715,4.76A.7.7,0,0,1,378.008,152.591Z" transform="translate(-291.741 -120.845)" fill="url(#m)"></path><path d="M496.155,220.068c0,.024,0,.048,0,.072h0C496.153,220.116,496.155,220.092,496.155,220.068Z" transform="translate(-398.324 -181.73)" fill="url(#q)"></path></g></svg>