<svg xmlns="http://www.w3.org/2000/svg" xmlns:xlink="http://www.w3.org/1999/xlink" width="313.286" height="345.01" viewBox="0 0 313.286 345.01">
  <defs>
    <clipPath id="clip-path">
      <path id="Path_180" data-name="Path 180" d="M1064.083,948.283s-.709,54.157-35.016,34.9c0,0-12.883-8.988-12.646-24.6,0,0-9.464,9.635-11.269-7.878,0,0-2.8-23.473,13.617-10.986,0,0-5.506-17.9,8.063-21.361C1026.833,918.362,1062.175,909.132,1064.083,948.283Z" transform="translate(-1004.972 -917.415)" fill="#f2b87e"/>
    </clipPath>
  </defs>
  <g id="Group_111749" data-name="Group 111749" transform="translate(-318.94 -398.384)">
    <g id="Group_11" data-name="Group 11" transform="translate(330.828 398.384)">
      <path id="Path_784125" data-name="Path 784125" d="M27.858,0H161a27.858,27.858,0,0,1,27.858,27.858V317.152A27.858,27.858,0,0,1,161,345.01H27.858A27.858,27.858,0,0,1,0,317.152V27.858A27.858,27.858,0,0,1,27.858,0Z" transform="translate(0 0)" fill="#515151"/>
      <path id="Path_784124" data-name="Path 784124" d="M29.184,0H159.673a29.184,29.184,0,0,1,29.184,29.184V315.826a29.184,29.184,0,0,1-29.184,29.184H29.184A29.184,29.184,0,0,1,0,315.826V29.184A29.184,29.184,0,0,1,29.184,0Z" transform="translate(19.053 0)" fill="#2a2a2a"/>
      <path id="Path_152" data-name="Path 152" d="M768.2,927.3c0,9.2,7.084,16.658,15.822,16.658H905.641c8.738,0,15.822-7.458,15.822-16.658V665.828c0-9.2-7.083-16.658-15.822-16.658H784.019c-8.738,0-15.822,7.458-15.822,16.658Z" transform="translate(-731.747 -626.939)" fill="#515151"/>
      <path id="Path_153" data-name="Path 153" d="M768.2,927.3c0,9.2,7.084,16.658,15.822,16.658H893.943c8.738,0,15.822-7.458,15.822-16.658V665.828c0-9.2-7.084-16.658-15.822-16.658H784.019c-8.738,0-15.822,7.458-15.822,16.658Z" transform="translate(-731.747 -626.939)" fill="#fff"/>
      <path id="Path_154" data-name="Path 154" d="M888.369,1519.9s0,8.348-2.442,14.489H840.045s-11.82-7.183-12.245-14.833l-8.414-19.129-3.159-8.6s2.333,1.511,5.72-6.294Z" transform="translate(-765.654 -1217.366)" fill="#2a2a2a"/>
      <path id="Path_155" data-name="Path 155" d="M733.241,1535.682s-15.59,3-17.934-15.358c0,0-1.562-9.7,2.734-12.663,0,0-9.008-11.369-9.008-20.055v-16l10.18-.521,14.027,64.595Z" transform="translate(-689.981 -1207.173)" fill="#283244"/>
      <path id="Path_156" data-name="Path 156" d="M1279.534,1438.564s-12.432,22.522-29.892,17.121v-8.206l11.7-32.37,18.195,7.737Z" transform="translate(-1071.624 -1167.655)" fill="#1d3f47"/>
      <path id="Path_157" data-name="Path 157" d="M1126.8,1219.938a182.849,182.849,0,0,1,19.478,41.448l6.25,13.672s-20.146-7.031-25.307,11.719c0,0-10.346-13.849-12.636-17.862l-8.1-9.481Z" transform="translate(-970.56 -1029.874)" fill="#ff637d"/>
      <path id="Path_158" data-name="Path 158" d="M1123.157,1274.605s12.611-30.536,27.816-18.446c0,0-7.475-18.8-13.908-28.159l-18.435,33.68Z" transform="translate(-979.136 -1035.565)" fill="#f45670"/>
      <path id="Path_159" data-name="Path 159" d="M1306.673,1157.924s20.684-36.169,27.521-42.506l12.751,11.335s-18.717,77.632-43.091,71.5C1303.855,1198.254,1283.2,1183.914,1306.673,1157.924Z" transform="translate(-1103.968 -956.087)" fill="#f2c386"/>
      <path id="Path_160" data-name="Path 160" d="M1401.733,1140.047s9.618,16.983,13.808,23.516l5.41-13.629s2.954-7.865.39-7.129c0,0-4.854,9.083-10.248-.7,0,0-6.547.346-6.891-5.63Z" transform="translate(-1178.993 -970.953)" fill="#e8ac70"/>
      <path id="Path_161" data-name="Path 161" d="M1305.77,966.862s-3.072,18.439,20.087,24.047c20.139,4.876-1.053.8-1.053.8l6.213-4.7-24.085-21.751Z" transform="translate(-1111.152 -850.077)" fill="#21363d"/>
      <path id="Path_162" data-name="Path 162" d="M1283.217,1004.621s-5.954,5.537,2.381,15.77c0,0,9.2,8.74,15.126,4.254Z" transform="translate(-1093.872 -877.87)" fill="#4a4a4a"/>
      <path id="Path_163" data-name="Path 163" d="M1438.26,661.949s3.046-16.264,27.11,6.366,60.8,76.249,27.46,72.636c0,0,5.547-3.216-11.266,2.235s-26.157,5.19-26.157,5.19l-8.684-3.5Z" transform="translate(-1204.779 -631.967)"/>
      <path id="Path_164" data-name="Path 164" d="M1463.648,746.405s38,12.266,39.68,53.438C1503.328,799.843,1468.094,779.6,1463.648,746.405Z" transform="translate(-1222.702 -695.582)" fill="#4a4a4a"/>
      <path id="Path_165" data-name="Path 165" d="M1293.783,961.2l-6.226,8.623s-7.146,16.641,16.589,23.959l13.013-9.85Z" transform="translate(-1097.678 -847.22)" fill="#2a2a2a"/>
      <path id="Path_166" data-name="Path 166" d="M1317.285,747.74s30.274-34.106,31.6-72.212c0,0,10.625,51.787,57.816,79.175,0,0-49.076,8.92-71.432,27.768,0,0-11.131,3.165-20.109-9.2S1317.285,747.74,1317.285,747.74Z" transform="translate(-1115.402 -645.546)" fill="#ff637d"/>
      <path id="Path_167" data-name="Path 167" d="M1393.346,846.281c-2.05-.171-52.667,46.993-51.368,53.765,0,0-1.089-.327-3.979-2.729,0,0,28.354-26.288,54.079-52.69Z" transform="translate(-1134 -764.923)" fill="#fff"/>
      <path id="Path_168" data-name="Path 168" d="M1360.73,1039.221l19.928,28.968s5.382,7.855.477,11.31a5.23,5.23,0,0,1-7.222-.386c-6.312-6.144-26.189-31.733-26.189-31.733Z" transform="translate(-1140.865 -902.296)" fill="#2a2a2a"/>
      <path id="Path_169" data-name="Path 169" d="M1392.79,1158.662s-5.708-10.042-11.81-.594l6.1-9.449,10.308,7.722Z" transform="translate(-1164.343 -979.526)" fill="#e8ac70"/>
      <path id="Path_170" data-name="Path 170" d="M1383.9,1105.036s-8.561-15.651-2.619-22.239c0,0,7.394,18.432,7.64,19S1383.9,1105.036,1383.9,1105.036Z" transform="translate(-1163.073 -933.059)" fill="#f2c386"/>
      <path id="Path_171" data-name="Path 171" d="M1372.208,797.8l4.565,7.161-43.853,49.735-7.048,7.875-2.3-2.975Z" transform="translate(-1123.814 -731.862)" fill="#fff"/>
      <path id="Path_172" data-name="Path 172" d="M1481.947,785.555s21.706,7.77,25.138,32.22C1507.085,817.775,1485.825,793.076,1481.947,785.555Z" transform="translate(-1235.62 -723.22)" fill="#fff"/>
      <path id="Path_173" data-name="Path 173" d="M1423.391,1087.957s-8.657-7.985-14.186,2.815c0,0-3.509,20.1,10.133,13.918,0,0,12.83-3.445,5.18,12.566C1424.518,1117.256,1435.013,1098.175,1423.391,1087.957Z" transform="translate(-1183.982 -934.695)" fill="#f2c386"/>
      <path id="Path_174" data-name="Path 174" d="M948.9,616.607a3.427,3.427,0,0,0,3.427,3.427h27.16a3.427,3.427,0,0,0,3.427-3.427h0a3.427,3.427,0,0,0-3.427-3.427h-27.16a3.427,3.427,0,0,0-3.427,3.427Z" transform="translate(-859.316 -601.532)" fill="#fff"/>
      <path id="Path_175" data-name="Path 175" d="M912.294,1150.495s31.528-.029,26.863,17.549-19.011,49.068-19.011,49.068l-12.9,34.9s-53.068,16.667-69.735-19.792c0,0-2.083-105.807,24.9-100,0,0,24.806,3.646,31.725,26.043l13.11-12.128,5.05,4.367Z" transform="translate(-780.651 -967.781)" fill="#ff637d"/>
      <path id="Path_176" data-name="Path 176" d="M1026.343,1075.275s-9.026,9.762-9.644,19.136c0,0,7.585,22.656-11.165,10.156,0,0-18.75-10.547-17.578-25.781l14.867-30.549,6.742-5.617,16.779,32.655Z" transform="translate(-886.849 -904.695)" fill="#f2b87e"/>
      <path id="Path_177" data-name="Path 177" d="M1030.167,1055.413s2.492,24.154,20.366,29.995c0,0,4.217-7.619,5.646-7.567l-22.682-31.869Z" transform="translate(-916.686 -907.062)" fill="#e8ac70"/>
      <g id="Group_10" data-name="Group 10" transform="translate(97.66 75.289)">
        <g id="Group_9" data-name="Group 9" transform="translate(8.413 25.819)">
          <path id="Path_178" data-name="Path 178" d="M1064.083,948.283s-.709,54.157-35.016,34.9c0,0-12.883-8.988-12.646-24.6,0,0-9.464,9.635-11.269-7.878,0,0-2.8-23.473,13.617-10.986,0,0-5.506-17.9,8.063-21.361C1026.833,918.362,1062.175,909.132,1064.083,948.283Z" transform="translate(-1004.972 -917.415)" fill="#f2b87e"/>
          <g id="Group_8" data-name="Group 8" clip-path="url(#clip-path)">
            <path id="Path_179" data-name="Path 179" d="M1096.218,934.866s-3.6-11.881-9.936-13.945c0,0-5.827,5.047-11.154,7.184l2.348-9.462s-8.546,15.64-25.581,11.014l12.654-22.309,16.407-4.193,12.568,5.99,5.4,16.928Z" transform="translate(-1038.097 -907.348)" fill="#e8ac70"/>
          </g>
        </g>
        <path id="Path_181" data-name="Path 181" d="M1029.861,868.208s-5.947,29.226-31.29,28.964c0,0-8.86-7.688-12.789.065,0,0-1.424,7.113-.828,10.922,0,0-20.624-27.695,2.026-41.8C986.981,866.359,1032.118,844.432,1029.861,868.208Z" transform="translate(-976.36 -849.044)" fill="#2a2a2a"/>
        <path id="Path_182" data-name="Path 182" d="M1118.63,887.444l8.707,8.766c17.972,8.728,16.588,34.8,16.588,34.8,5.779-3.381,7.7-25.773,7.7-25.773,4.344-31.518-21.324-17.7-21.324-17.7Z" transform="translate(-1076.796 -868.376)" fill="#2a2a2a"/>
        <path id="Path_183" data-name="Path 183" d="M1157.241,848.773s-3.433-17.453,8.78-19.164C1166.02,829.609,1156.628,839.845,1157.241,848.773Z" transform="translate(-1103.739 -829.609)" fill="#2a2a2a"/>
        <path id="Path_184" data-name="Path 184" d="M1158.308,865.818s7.01-17.673,20.676-10.239C1178.984,855.579,1165.254,855.922,1158.308,865.818Z" transform="translate(-1104.806 -846.654)" fill="#2a2a2a"/>
        <path id="Path_185" data-name="Path 185" d="M1118.761,903.306s-3.437,17.932-12.279,21.977c0,0,12.29-.992,16.2-19.594l-8.252-11.112Z" transform="translate(-1068.22 -875.473)" fill="#2a2a2a"/>
        <path id="Path_186" data-name="Path 186" d="M1118.63,887.444l8.707,8.766c17.972,8.728,16.588,34.8,16.588,34.8,5.779-3.381,7.7-25.773,7.7-25.773,4.344-31.518-21.324-17.7-21.324-17.7Z" transform="translate(-1076.796 -868.376)" fill="none"/>
        <path id="Path_187" data-name="Path 187" d="M1149.532,894.782s-1.944,6.548-2.96,8.669l-.695,2.939s2.578.638,3.211,4.509C1149.088,910.9,1153.152,898.57,1149.532,894.782Z" transform="translate(-1096.031 -875.618)" fill="#272424"/>
        <path id="Path_188" data-name="Path 188" d="M1001.2,984.79a16.748,16.748,0,0,0-5.988,8.606s1.521,3.562,3.051,4.877C998.261,998.273,996.876,987.44,1001.2,984.79Z" transform="translate(-989.667 -939.159)" fill="#272424"/>
        <path id="Path_189" data-name="Path 189" d="M1041.495,970.259s6.149,2.56,3.472,13.035c0,0,7.813-11.072,8.333-19.722Z" transform="translate(-1022.342 -924.18)" fill="#272424"/>
        <path id="Path_190" data-name="Path 190" d="M1118.63,887.444l8.707,8.766c17.972,8.728,16.588,34.8,16.588,34.8,5.779-3.381,7.7-25.773,7.7-25.773,4.344-31.518-21.324-17.7-21.324-17.7Z" transform="translate(-1076.796 -868.376)" fill="none"/>
        <path id="Path_191" data-name="Path 191" d="M1177,947.269a28.532,28.532,0,0,1,1.847,2.561A17.321,17.321,0,0,1,1177,947.269Z" transform="translate(-1118.002 -912.671)" fill="none"/>
        <path id="Path_192" data-name="Path 192" d="M1158.308,888.525a30.071,30.071,0,0,1,7.349-2.606h0s-7.232,8.885-1.853,18.039a25.253,25.253,0,0,0-4.587-4.42C1159.607,896.979,1160.366,890.441,1158.308,888.525Z" transform="translate(-1104.806 -869.361)" fill="#272424"/>
        <path id="Path_193" data-name="Path 193" d="M1183.288,955.983l0,0,0,0Z" transform="translate(-1122.437 -918.818)" fill="#d83545"/>
        <path id="Path_194" data-name="Path 194" d="M1074.753,955.581a25.016,25.016,0,0,0,2.026-14.745s2.557,8.85.3,14.119Z" transform="translate(-1045.821 -908.13)" fill="#272424"/>
      </g>
      <path id="Path_195" data-name="Path 195" d="M957,1171.275s-23.283-.637-33.792-22.511c0,0-9.77-16.925-17.562-16.47,0,0,7.728-3.5,24.187,7.853C929.835,1140.146,935.68,1168.4,957,1171.275Z" transform="translate(-828.781 -967.642)" fill="#f45670"/>
      <path id="Path_196" data-name="Path 196" d="M1192.715,1392.638l6.893,11.719s-13.865-10.176-27.358,7.012l-4.842-7.012-3.995-17.862Z" transform="translate(-1010.751 -1147.455)" fill="#f45670"/>
      <path id="Path_197" data-name="Path 197" d="M1193.464,1326.364s-.478-11.533,22.967-37.8l16.146-22.482s-.855,9.758,8.325,14.286c0,0,13.534,7.7,16.92,1.187,0,0-25.765,71.111-54.019,56.267A60.175,60.175,0,0,1,1193.464,1326.364Z" transform="translate(-1031.964 -1062.45)" fill="#ff637d"/>
      <path id="Path_198" data-name="Path 198" d="M1191.277,1371.831s-18.125,1.617-23.131,18.657l7.445,10.529S1174.882,1389,1191.277,1371.831Z" transform="translate(-1014.092 -1137.103)" fill="#f45670"/>
      <path id="Path_199" data-name="Path 199" d="M1286.675,1043.742l-3.5,2.919s-5.888,1.2-8.968-3.853c0,0-6.655-7.3.211-12.164a31.4,31.4,0,0,0,1.954,4.06C1278.086,1037.8,1281.6,1042.6,1286.675,1043.742Z" transform="translate(-1086.919 -896.241)" fill="#4a4a4a"/>
      <path id="Path_200" data-name="Path 200" d="M862.31,1207.3s2.753,44.324-23.613,54.174l1.112-18.919,4.815-23.837Z" transform="translate(-781.517 -1020.952)" fill="#f45670"/>
      <path id="Path_201" data-name="Path 201" d="M773.616,1131.9s13.845,26.343-9.593,48.74l-18.23,16.667-8.854,8.981s-19.793-3.252-18.23-18.878C718.709,1187.408,749.429,1124.044,773.616,1131.9Z" transform="translate(-696.749 -967.245)" fill="#ff637d"/>
      <path id="Path_202" data-name="Path 202" d="M719.814,1324.945s6.771,29.562,13.542,42.583c0,0-11.126-4.9-17.282,6.406l-3.031,5.573s-32.814-49.48-11.459-73.44c0,0,7.363-5.642,12.276-6.727S719.814,1324.945,719.814,1324.945Z" transform="translate(-679.625 -1085.905)" fill="#ff637d"/>
      <path id="Path_203" data-name="Path 203" d="M736.939,1362.145s-6.947-9.539-18.318-4.312c0,0,6.989-12,24.112-1.565Z" transform="translate(-696.749 -1123.104)" fill="#f45670"/>
      <path id="Path_204" data-name="Path 204" d="M958.058,1352.617s-38.2,5.364-68.128-19.028l-3.04,5.414s28.406,25.752,68.143,20.433Z" transform="translate(-815.539 -1110.105)" fill="#fff"/>
      <path id="Path_205" data-name="Path 205" d="M863.812,1314.993l-9.683-7.746-4.236,3.873,10.879,9.287Z" transform="translate(-789.421 -1091.51)" fill="#fff"/>
      <path id="Path_206" data-name="Path 206" d="M935.934,1388.325l-2.029,5.489s-32.78,12.329-71.883-22.224l3.393-2.99S893.483,1394.3,935.934,1388.325Z" transform="translate(-797.983 -1134.823)" fill="#fff"/>
      <path id="Path_207" data-name="Path 207" d="M850.221,1350.2l-9.4-7.663-.317,5.394,6.329,5.259Z" transform="translate(-782.79 -1116.425)" fill="#fff"/>
      <path id="Path_208" data-name="Path 208" d="M905.979,1492.65s-2.778,8.333-2.141,14.584-9.8,5.208-15.26,4.687-58.94-5.174-52.334-39.064Z" transform="translate(-779.387 -1208.423)" fill="#ff637d"/>
      <path id="Path_209" data-name="Path 209" d="M760.756,1547.32v0l-3.031-6.885c7.292-18.751,19.683-11.98,19.683-11.98l9.044,20.562s3.442,12.734,18.782,17.2c0,0-6.537,6.144-17.281,0,0,0-8.414-8.868-10.546,7.8,0,0-1.466,7.225-7.927,2.779C763.284,1572.537,752.251,1560.1,760.756,1547.32Z" transform="translate(-724.306 -1246.829)" fill="#f2c386"/>
      <path id="Path_210" data-name="Path 210" d="M777.572,1526.991s-10.5,2.832-16.652,18.865l-3.031-6.885S764.581,1519.255,777.572,1526.991Z" transform="translate(-724.47 -1245.368)" fill="#dbb17b"/>
      <path id="Path_211" data-name="Path 211" d="M1261.34,1520.234s-8.77,3.008-11.7,0v-10.345s7.327.105,11.7-2.957Z" transform="translate(-1071.624 -1232.478)" fill="#5f8993"/>
      <path id="Path_212" data-name="Path 212" d="M1061.569,1602.41" transform="translate(-938.854 -1299.88)" fill="#283244"/>
      <path id="Path_213" data-name="Path 213" d="M817.359,1506.933s15.266,48.184,61.362,42.564h-36.2s-8.956-1.726-14.721-14.833l-11.573-26.725Z" transform="translate(-765.654 -1232.478)" fill="#2a2a2a"/>
      <path id="Path_214" data-name="Path 214" d="M842.764,1656.969s-14.626-4.228-15.794,3.8c0,0,.293-7.145,3.978-8.278,0,0,3.784.275,4.861,1.2C835.809,1653.692,840.355,1656.62,842.764,1656.969Z" transform="translate(-773.238 -1335.232)" fill="#283244"/>
    </g>
    <path id="Path_235" data-name="Path 235" d="M628.537,1746.877" transform="translate(-309.597 -1003.483)" fill="#ccdb3b"/>
  </g>
</svg>
